<?xml version="1.0" standalone="no"?>
<!DOCTYPE svg PUBLIC "-//W3C//DTD SVG 20010904//EN"
 "http://www.w3.org/TR/2001/REC-SVG-20010904/DTD/svg10.dtd">
<svg version="1.0" xmlns="http://www.w3.org/2000/svg"
 width="500.000000pt" height="500.000000pt" viewBox="0 0 500.000000 500.000000"
 preserveAspectRatio="xMidYMid meet">
<metadata>
Created by potrace 1.14, written by Peter Selinger 2001-2017
</metadata>
<g transform="translate(0.000000,500.000000) scale(0.100000,-0.100000)"
fill="#000000" stroke="none">
<path d="M2190 4955 c-241 -30 -519 -111 -740 -216 -746 -356 -1257 -1042
-1387 -1859 -26 -163 -26 -577 0 -740 160 -1010 910 -1813 1902 -2035 174 -39
325 -54 535 -55 207 0 357 15 536 55 463 104 865 325 1204 665 368 368 597
810 692 1337 20 113 23 159 23 403 -1 238 -4 292 -22 400 -92 522 -324 972
-693 1340 -74 75 -181 171 -238 214 -355 269 -765 437 -1202 492 -140 17 -464
17 -610 -1z m600 -130 c254 -30 496 -103 735 -219 616 -302 1060 -847 1235
-1516 16 -63 30 -118 30 -122 0 -5 -200 -8 -443 -8 l-444 0 -28 73 c-44 114
-105 224 -187 333 -214 284 -481 466 -816 555 -64 17 -130 38 -146 46 -15 8
-56 21 -90 28 -58 13 -59 13 -21 15 22 1 48 5 59 9 15 6 11 9 -20 19 -31 9
-175 29 -229 32 -21 2 83 48 134 60 55 13 157 8 209 -10 l27 -10 -22 19 c-12
10 -51 27 -87 37 -36 10 -66 22 -66 26 0 11 146 21 196 13 54 -8 53 1 -10 44
-80 55 -219 76 -301 46 -40 -15 7 22 70 56 l60 31 -47 -5 c-62 -6 -146 -48
-197 -98 l-42 -40 21 41 c20 39 14 54 -10 25 -19 -23 -30 -18 -30 16 0 42 -17
28 -26 -24 -8 -41 -8 -41 -15 31 -4 40 -13 88 -20 105 -16 39 -69 120 -75 114
-3 -3 4 -32 16 -66 27 -82 25 -91 -9 -44 -65 90 -179 153 -278 153 l-35 0 56
-47 c53 -46 133 -133 122 -133 -3 0 -31 13 -63 29 -32 16 -71 32 -88 36 -23 5
-17 -2 31 -33 66 -43 119 -102 154 -172 l22 -45 -38 37 c-41 38 -131 98 -148
98 -5 0 1 -12 15 -27 63 -71 66 -78 20 -45 -82 59 -231 97 -291 74 -22 -8 -20
-10 30 -22 58 -14 120 -37 120 -45 0 -2 -6 -2 -14 1 -27 10 -157 -16 -214 -43
-50 -24 -180 -138 -169 -149 3 -3 40 4 84 15 83 21 193 37 193 28 0 -3 -24
-17 -52 -32 -96 -50 -146 -101 -64 -65 113 51 243 62 335 29 l34 -12 -36 -15
c-21 -8 -37 -18 -37 -23 0 -5 -9 -9 -20 -9 -22 0 -120 -41 -153 -65 -21 -16
-21 -16 18 -10 22 3 51 8 65 11 14 3 -6 -11 -45 -31 -83 -42 -148 -102 -181
-168 l-25 -48 67 55 c37 31 69 54 71 53 6 -7 -63 -133 -81 -146 -10 -8 -55
-47 -100 -87 -161 -145 -318 -373 -386 -561 l-23 -63 -443 -2 c-362 -3 -444
-1 -444 10 0 7 11 57 25 111 79 312 229 618 434 881 82 106 261 287 366 370
336 266 745 440 1160 495 134 17 453 18 595 0z m-853 -791 c-3 -3 -12 -4 -19
-1 -8 3 -5 6 6 6 11 1 17 -2 13 -5z m191 -116 c-87 -133 -118 -186 -163 -282
-144 -305 -242 -695 -275 -1091 -18 -217 -19 -225 -38 -225 -9 0 -53 -13 -98
-28 -67 -23 -89 -26 -135 -20 -29 5 -99 7 -154 6 l-100 -2 -3 99 c-5 189 64
322 205 394 57 28 147 51 204 51 45 0 48 2 53 30 3 17 9 44 12 62 l6 31 -83
-6 c-99 -7 -242 -46 -318 -87 l-53 -29 7 37 c11 58 82 230 127 307 53 92 130
193 212 280 53 57 67 67 75 55 6 -8 11 -24 11 -35 1 -11 7 -33 14 -50 l13 -30
23 70 c27 81 62 162 82 188 11 15 13 2 11 -90 l-2 -108 19 77 c29 117 88 221
152 268 l31 23 -5 -32 c-2 -17 -4 -31 -3 -31 1 0 18 24 39 54 30 43 128 135
145 136 2 0 -3 -10 -11 -22z m106 -153 c1 -49 -2 -106 -6 -125 l-8 -35 23 35
22 35 3 -75 c2 -41 -2 -95 -8 -120 -14 -55 -64 -157 -93 -187 -11 -13 -16 -23
-11 -23 11 0 104 94 128 130 40 61 -2 -87 -55 -193 -17 -32 -28 -61 -26 -63 2
-2 31 13 64 35 97 62 158 151 184 265 15 69 23 57 34 -54 l8 -75 14 45 c20 64
11 181 -20 258 -13 34 -23 62 -21 62 1 0 18 -21 36 -46 18 -25 34 -41 36 -36
7 22 -44 128 -91 190 l-51 67 53 -45 c53 -44 54 -44 37 -12 -19 37 -17 38 27
16 86 -44 170 -139 214 -242 l24 -57 -6 54 c-3 29 -15 77 -26 105 -10 28 -19
53 -19 55 0 17 71 -69 118 -141 58 -92 72 -96 72 -27 0 74 -21 151 -68 242 -7
14 28 7 111 -22 211 -74 368 -172 523 -327 193 -191 333 -463 378 -733 16 -92
22 -343 10 -375 -5 -13 -9 -14 -32 -2 -15 8 -67 27 -117 42 -80 25 -105 28
-230 29 -77 0 -165 -3 -195 -8 -33 -4 -49 -4 -40 2 21 13 153 41 191 41 31 0
31 1 25 38 -4 20 -25 75 -48 122 -103 213 -329 344 -563 326 -146 -11 -259
-61 -363 -162 -67 -64 -67 -65 -45 -80 12 -9 39 -36 60 -61 l37 -46 -92 61
c-155 105 -412 236 -429 219 -3 -4 -6 -31 -7 -62 l-1 -55 95 -43 c183 -83 372
-213 840 -576 256 -200 409 -302 552 -371 l118 -56 -31 -37 c-34 -41 -52 -45
-141 -26 -190 40 -515 144 -924 297 l-241 91 -99 98 c-77 77 -116 108 -174
137 l-75 37 -5 -68 -5 -68 -13 65 c-23 111 -27 473 -8 630 42 331 147 683 289
965 38 76 40 79 50 55 5 -14 10 -65 11 -115z m-1182 -997 c-11 -51 -16 -131
-16 -268 0 -163 4 -212 22 -297 101 -466 391 -832 823 -1037 116 -55 190 -80
334 -113 115 -26 455 -26 570 1 154 35 221 58 350 121 312 151 543 382 690
690 139 291 173 557 119 933 l-7 42 436 0 435 0 6 -27 c14 -60 19 -421 7 -534
-44 -425 -197 -819 -454 -1165 -104 -141 -332 -370 -471 -472 -348 -256 -740
-409 -1165 -453 -157 -16 -483 -6 -621 20 -494 91 -913 307 -1255 648 -194
193 -329 382 -450 628 -145 294 -215 562 -234 887 -7 129 2 409 15 450 5 17
30 18 443 18 l438 0 -15 -72z m2572 -484 c38 -7 98 -27 133 -44 64 -29 65 -30
58 -62 -14 -68 -57 -186 -101 -276 -52 -108 -38 -105 -183 -36 -112 53 -221
123 -395 253 l-128 96 33 13 c67 28 226 63 314 70 106 9 175 5 269 -14z
m-2144 -140 c190 -33 429 -109 935 -297 508 -188 830 -292 968 -312 26 -4 47
-11 47 -15 0 -4 -30 -32 -67 -63 -251 -203 -540 -307 -859 -308 -214 0 -388
37 -573 122 -260 121 -510 359 -636 608 -30 60 -89 210 -99 253 -6 26 -4 27
36 30 64 5 153 -2 248 -18z"/>
<path d="M2794 3290 c15 -5 37 -17 47 -26 17 -16 20 -16 37 -1 9 9 29 20 42
26 l25 10 -28 0 c-15 1 -34 -7 -44 -19 -17 -19 -17 -19 -30 0 -9 13 -25 20
-46 19 l-32 -1 29 -8z"/>
<path d="M3175 3243 c11 -3 28 -12 38 -21 14 -13 20 -13 26 -4 4 7 21 17 37
22 l29 8 -26 1 c-15 1 -32 -6 -40 -15 -11 -14 -13 -14 -21 0 -5 9 -21 15 -36
15 -21 -1 -22 -2 -7 -6z"/>
<path d="M3250 3040 c-12 -8 -11 -10 8 -10 28 0 78 -25 86 -42 5 -11 7 -11 12
0 8 17 58 42 86 42 19 0 20 2 8 10 -24 16 -47 12 -76 -13 l-27 -23 -23 23
c-25 24 -49 29 -74 13z"/>
<path d="M988 1653 c-15 -9 -29 -24 -31 -32 -5 -22 -242 -172 -285 -182 -68
-15 -68 -25 -2 -127 52 -80 67 -96 107 -114 41 -18 52 -19 96 -9 93 21 220
110 251 175 29 61 21 104 -34 197 -67 110 -69 112 -102 92z m42 -162 c29 -56
-10 -117 -109 -169 -75 -40 -109 -41 -145 -3 l-29 30 124 80 c68 45 129 81
136 81 7 0 17 -9 23 -19z"/>
<path d="M3935 1615 c-19 -30 -35 -59 -35 -64 0 -14 49 -43 61 -36 5 4 32 -8
59 -25 l50 -32 -22 -37 c-12 -20 -23 -38 -24 -40 -6 -7 -103 61 -101 70 1 5
-12 18 -29 29 l-31 20 -37 -55 c-20 -30 -36 -59 -36 -64 0 -13 38 -34 66 -37
29 -3 284 -166 284 -181 0 -13 39 -43 55 -43 5 0 25 26 44 57 l34 56 -28 23
c-15 12 -34 20 -41 17 -11 -4 -44 12 -96 48 -12 8 30 79 45 79 18 -1 91 -54
88 -64 -3 -8 47 -46 61 -46 4 0 25 25 45 56 l37 56 -28 23 c-16 13 -35 21 -42
18 -17 -6 -276 157 -281 178 -3 8 -17 23 -33 33 l-29 17 -36 -56z"/>
<path d="M3705 1294 c-70 -36 -105 -89 -105 -159 0 -62 30 -117 106 -192 117
-117 206 -133 292 -50 69 66 78 113 31 170 -36 43 -48 45 -77 14 -20 -21 -20
-25 -7 -43 22 -28 18 -50 -12 -74 -33 -26 -62 -21 -116 22 -106 85 -146 179
-91 215 25 16 28 16 57 -1 30 -17 31 -17 56 8 l25 26 -39 40 c-43 44 -71 50
-120 24z"/>
<path d="M1174 1260 c-23 -12 -71 -52 -108 -90 -118 -122 -136 -211 -58 -293
56 -60 130 -74 201 -38 51 26 146 124 182 186 49 85 33 160 -49 222 -52 40
-106 44 -168 13z m131 -101 c18 -19 18 -21 1 -53 -24 -46 -155 -175 -184 -183
-16 -4 -30 1 -44 14 -19 20 -19 22 -3 56 21 45 168 187 193 187 11 0 27 -9 37
-21z"/>
<path d="M1485 1051 c-8 -17 -12 -36 -9 -44 4 -11 -84 -318 -113 -393 -2 -6
12 -19 31 -29 42 -23 40 -24 127 84 35 44 65 78 67 76 2 -2 -13 -54 -33 -115
-20 -61 -35 -113 -34 -114 2 -2 19 -11 38 -21 30 -15 36 -15 45 -3 54 72 260
307 266 303 8 -5 40 38 40 54 0 11 -80 61 -98 61 -17 0 -43 -55 -32 -66 6 -6
-9 -32 -37 -67 -25 -32 -47 -56 -50 -54 -3 4 45 163 64 212 3 9 -55 45 -71 45
-1 0 -36 -41 -76 -90 -40 -50 -74 -89 -76 -87 -2 2 7 34 19 72 14 45 28 70 40
73 10 2 24 17 32 32 l15 28 -66 36 c-35 20 -67 36 -69 36 -3 0 -11 -13 -20
-29z"/>
<path d="M3323 994 l-73 -45 16 -31 c12 -23 20 -29 37 -24 20 5 26 -7 78 -152
32 -88 53 -162 48 -167 -4 -6 1 -25 12 -43 l21 -32 56 36 c32 20 58 38 60 39
8 7 -35 64 -46 60 -8 -3 -19 9 -28 30 -19 47 -18 52 15 69 28 15 30 15 54 -18
15 -20 22 -37 17 -42 -5 -5 -1 -22 11 -41 l21 -33 39 23 c22 12 51 31 65 43
26 20 26 21 10 52 -9 18 -22 29 -29 26 -7 -2 -72 60 -152 146 -77 82 -144 149
-150 149 -5 0 -43 -21 -82 -45z m167 -185 c0 -7 -31 -22 -35 -17 -1 2 -11 28
-23 58 l-22 55 40 -45 c22 -25 40 -48 40 -51z"/>
<path d="M3025 861 c-138 -48 -140 -49 -138 -77 1 -16 9 -34 18 -40 22 -16
108 -271 110 -327 1 -26 7 -53 12 -58 15 -15 293 77 293 96 0 12 -14 54 -39
118 -10 26 -12 27 -43 14 -28 -12 -33 -18 -30 -44 3 -33 -7 -45 -55 -61 -31
-10 -32 -10 -47 36 -9 25 -16 49 -16 52 0 4 18 12 39 19 l40 11 -15 45 -15 44
-40 -14 c-39 -14 -40 -14 -50 13 -6 15 -13 39 -16 53 -4 24 -1 27 37 37 43 11
45 9 73 -31 11 -15 17 -16 45 -6 18 6 31 16 29 23 -2 6 -14 41 -26 79 -13 37
-23 67 -24 66 -1 0 -65 -22 -142 -48z"/>
<path d="M1945 835 c-3 -8 -7 -23 -10 -32 -3 -9 -1 -19 5 -23 14 -8 -58 -311
-77 -327 -8 -6 -16 -26 -16 -44 -2 -31 0 -32 53 -45 30 -7 58 -10 61 -8 11 7
18 59 8 70 -5 6 -5 25 1 45 5 19 14 54 21 79 l12 45 23 -129 c13 -71 27 -133
32 -138 4 -4 28 -11 52 -14 l45 -6 44 189 c24 103 50 193 58 199 8 7 16 27 19
46 l6 34 -56 13 c-31 7 -60 10 -65 7 -12 -8 -20 -65 -9 -68 10 -4 -22 -148
-33 -148 -3 0 -12 35 -19 78 -27 174 -25 169 -81 181 -65 14 -69 14 -74 -4z"/>
<path d="M2570 771 c-54 -6 -55 -7 -58 -40 -2 -19 2 -37 9 -41 15 -10 50 -321
38 -334 -14 -16 -10 -66 6 -72 27 -11 217 16 249 34 60 35 70 151 20 212 -21
24 -23 32 -13 56 18 49 1 124 -36 161 -31 31 -37 33 -96 31 -35 -1 -89 -4
-119 -7z m135 -97 c26 -26 16 -77 -17 -88 -15 -5 -29 -8 -32 -5 -2 2 -7 28
-11 57 -7 51 -6 52 18 52 14 0 33 -7 42 -16z m45 -203 c24 -46 -5 -91 -57 -91
-18 0 -23 6 -23 24 0 13 -3 38 -6 55 -6 31 -6 31 34 31 31 0 44 -5 52 -19z"/>
<path d="M1620 1796 c0 -3 22 -25 48 -50 181 -169 412 -296 651 -357 89 -23
283 -49 349 -48 55 1 56 1 -133 48 -290 72 -635 222 -857 373 -32 21 -58 37
-58 34z"/>
</g>
</svg>
